<svg width="137" height="32" viewBox="0 0 137 32" fill="none" xmlns="http://www.w3.org/2000/svg">
<path d="M118.338 16.5993C118.338 17.9882 118.09 19.2845 117.593 20.4882C117.096 21.6803 116.42 22.7162 115.565 23.5958C114.71 24.4639 113.705 25.1525 112.55 25.6618C111.406 26.1595 110.175 26.4083 108.858 26.4083C107.553 26.4083 106.322 26.1595 105.167 25.6618C104.023 25.1525 103.018 24.4639 102.152 23.5958C101.297 22.7162 100.621 21.6803 100.124 20.4882C99.6272 19.2845 99.3788 17.9882 99.3788 16.5993C99.3788 15.1873 99.6272 13.8794 100.124 12.6757C100.621 11.472 101.297 10.4361 102.152 9.56806C103.018 8.68843 104.023 7.99977 105.167 7.50208C106.322 7.0044 107.553 6.75556 108.858 6.75556C110.175 6.75556 111.406 6.99282 112.55 7.46736C113.705 7.93032 114.71 8.59583 115.565 9.46389C116.42 10.3204 117.096 11.3562 117.593 12.5715C118.09 13.7752 118.338 15.1178 118.338 16.5993ZM113.572 16.5993C113.572 15.8354 113.445 15.1468 113.191 14.5333C112.948 13.9083 112.613 13.3759 112.186 12.9361C111.758 12.4847 111.256 12.1433 110.678 11.9118C110.112 11.6687 109.505 11.5472 108.858 11.5472C108.211 11.5472 107.599 11.6687 107.021 11.9118C106.455 12.1433 105.958 12.4847 105.531 12.9361C105.115 13.3759 104.786 13.9083 104.543 14.5333C104.301 15.1468 104.179 15.8354 104.179 16.5993C104.179 17.3169 104.301 17.9824 104.543 18.5958C104.786 19.2093 105.115 19.7417 105.531 20.1931C105.958 20.6444 106.455 21.0032 107.021 21.2694C107.599 21.5241 108.211 21.6514 108.858 21.6514C109.505 21.6514 110.112 21.5299 110.678 21.2868C111.256 21.0437 111.758 20.7023 112.186 20.2625C112.613 19.8227 112.948 19.2903 113.191 18.6653C113.445 18.0403 113.572 17.3516 113.572 16.5993Z" fill="#282828"/>
<path d="M97.3976 25.2316C97.3976 25.6502 97.0589 25.9896 96.641 25.9896C96.3979 25.9896 96.1695 25.8725 96.0273 25.675L94.4168 23.4375C93.9662 23.8426 93.4867 24.2245 92.9784 24.5833C92.4816 24.9306 91.9559 25.2373 91.4014 25.5035C90.8468 25.7581 90.2749 25.9606 89.6857 26.1111C89.108 26.2616 88.5188 26.3368 87.918 26.3368C86.6124 26.3368 85.382 26.0937 84.2266 25.6076C83.0829 25.11 82.0777 24.4271 81.2112 23.559C80.3562 22.6794 79.6804 21.6435 79.1836 20.4514C78.6868 19.2477 78.4384 17.9398 78.4384 16.5278C78.4384 15.1273 78.6868 13.8252 79.1836 12.6215C79.6804 11.4178 80.3562 10.3762 81.2112 9.49653C82.0777 8.6169 83.0829 7.92824 84.2266 7.43056C85.382 6.93287 86.6124 6.68403 87.918 6.68403C88.3339 6.68403 88.7614 6.71875 89.2004 6.78819C89.651 6.85764 90.0843 6.97338 90.5002 7.13542C90.9277 7.28588 91.3262 7.48843 91.696 7.74305C92.0657 7.99768 92.3776 8.31018 92.6318 8.68056V2.38715C92.6318 1.06876 93.6987 0 95.0147 0C96.3307 0 97.3976 1.06876 97.3976 2.38715V25.2316ZM92.6318 16.5278C92.6318 15.8796 92.5047 15.2546 92.2505 14.6528C92.0079 14.0394 91.6729 13.5012 91.2454 13.0382C90.8179 12.5637 90.3153 12.1875 89.7376 11.9097C89.1715 11.6204 88.565 11.4757 87.918 11.4757C87.271 11.4757 86.6587 11.5914 86.081 11.8229C85.5149 12.0544 85.0181 12.39 84.5906 12.8299C84.1747 13.2581 83.8454 13.7847 83.6028 14.4097C83.3601 15.0347 83.2388 15.7407 83.2388 16.5278C83.2388 17.2106 83.3601 17.8588 83.6028 18.4722C83.8454 19.0856 84.1747 19.6238 84.5906 20.0868C85.0181 20.5498 85.5149 20.9144 86.081 21.1806C86.6587 21.4468 87.271 21.5799 87.918 21.5799C88.565 21.5799 89.1715 21.441 89.7376 21.1632C90.3153 20.8738 90.8179 20.4977 91.2454 20.0347C91.6729 19.5602 92.0079 19.022 92.2505 18.4201C92.5047 17.8067 92.6318 17.1759 92.6318 16.5278Z" fill="#282828"/>
<path d="M76.6353 3.15972C76.6353 3.59954 76.5487 4.01042 76.3754 4.39236C76.2136 4.77431 75.9883 5.10995 75.6995 5.39931C75.4107 5.67708 75.0698 5.90278 74.677 6.07639C74.2958 6.23843 73.8856 6.31944 73.4466 6.31944C73.0075 6.31944 72.5916 6.23843 72.1988 6.07639C71.8175 5.90278 71.4825 5.67708 71.1937 5.39931C70.9164 5.10995 70.6911 4.77431 70.5178 4.39236C70.356 4.01042 70.2752 3.59954 70.2752 3.15972C70.2752 2.73148 70.356 2.32639 70.5178 1.94444C70.6911 1.55093 70.9164 1.21528 71.1937 0.9375C71.4825 0.648148 71.8175 0.422454 72.1988 0.260417C72.5916 0.0868056 73.0075 0 73.4466 0C73.8856 0 74.2958 0.0868056 74.677 0.260417C75.0698 0.422454 75.4107 0.648148 75.6995 0.9375C75.9883 1.21528 76.2136 1.55093 76.3754 1.94444C76.5487 2.32639 76.6353 2.73148 76.6353 3.15972ZM75.8208 23.7073C75.8208 25.0257 74.754 26.0944 73.4379 26.0944C72.1219 26.0944 71.055 25.0257 71.055 23.7073V9.88785C71.055 8.56946 72.1219 7.50069 73.4379 7.50069C74.754 7.50069 75.8208 8.56946 75.8208 9.88785V23.7073Z" fill="#282828"/>
<path d="M65.7007 23.8903C65.3194 24.2375 64.9093 24.5674 64.4702 24.8799C64.0428 25.1808 63.5922 25.447 63.1185 25.6785C62.6448 25.8984 62.1538 26.072 61.6454 26.1993C61.1486 26.3382 60.6403 26.4076 60.1204 26.4076C58.9766 26.4076 57.9021 26.2051 56.8969 25.8C55.8918 25.3949 55.008 24.822 54.2454 24.0812C53.4944 23.3289 52.8994 22.4204 52.4604 21.3556C52.0329 20.2792 51.8192 19.0755 51.8192 17.7444V9.82778C51.8192 8.52377 52.8744 7.46667 54.1761 7.46667C55.4778 7.46667 56.533 8.52377 56.533 9.82778V17.7444C56.533 18.3694 56.6254 18.9308 56.8103 19.4285C57.0067 19.9146 57.2667 20.3255 57.5901 20.6611C57.9136 20.9968 58.2891 21.2514 58.7166 21.425C59.1556 21.5986 59.6236 21.6854 60.1204 21.6854C60.6056 21.6854 61.062 21.5755 61.4894 21.3556C61.9285 21.1241 62.3097 20.8231 62.6332 20.4528C62.9567 20.0824 63.2109 19.6657 63.3958 19.2028C63.5806 18.7282 63.673 18.2421 63.673 17.7444V9.83646C63.673 8.52766 64.7321 7.46667 66.0386 7.46667C67.3451 7.46667 68.4042 8.52766 68.4042 9.83646V25.3027C68.4042 25.7212 68.0656 26.0604 67.6478 26.0604C67.4046 26.0604 67.1762 25.9432 67.034 25.7454L65.7007 23.8903Z" fill="#282828"/>
<path d="M21.2959 13.1167C21.2959 14.3113 21.1379 15.4636 20.822 16.5738C20.5183 17.6719 20.0809 18.7036 19.5098 19.6689C18.9388 20.6222 18.2584 21.497 17.4687 22.2934C16.6789 23.0778 15.798 23.7535 14.826 24.3206C13.854 24.8878 12.8092 25.3282 11.6914 25.6419C10.5857 25.9436 9.43147 26.0944 8.22863 26.0944H2.13008C1.14999 26.0944 0.355469 25.2985 0.355469 24.3167V1.91667C0.355469 0.934827 1.14999 0.138889 2.13008 0.138889H8.22863C9.43147 0.138889 10.5857 0.295756 11.6914 0.609492C12.8092 0.91116 13.854 1.34556 14.826 1.9127C15.798 2.47984 16.6789 3.16161 17.4687 3.95801C18.2584 4.74235 18.9388 5.61719 19.5098 6.58253C20.0809 7.5358 20.5183 8.56751 20.822 9.67765C21.1379 10.7757 21.2959 11.9221 21.2959 13.1167ZM16.0653 13.1167C16.0653 12.0427 15.8588 11.0352 15.4457 10.0939C15.0447 9.15274 14.4858 8.3322 13.769 7.63233C13.0643 6.9204 12.232 6.35929 11.2722 5.94902C10.3245 5.53875 9.30997 5.33362 8.22863 5.33362H5.62247V20.8997H8.22863C9.30997 20.8997 10.3245 20.7006 11.2722 20.3024C12.232 19.8921 13.0643 19.3371 13.769 18.6372C14.4858 17.9253 15.0447 17.0987 15.4457 16.1575C15.8588 15.2042 16.0653 14.1906 16.0653 13.1167Z" fill="#282828"/>
<path d="M29.0758 3.15972C29.0758 3.59954 28.9891 4.01042 28.8158 4.39236C28.654 4.77431 28.4288 5.10995 28.1399 5.39931C27.8511 5.67708 27.5103 5.90278 27.1174 6.07639C26.7362 6.23843 26.326 6.31944 25.887 6.31944C25.448 6.31944 25.032 6.23843 24.6392 6.07639C24.258 5.90278 23.9229 5.67708 23.6341 5.39931C23.3568 5.10995 23.1315 4.77431 22.9582 4.39236C22.7964 4.01042 22.7156 3.59954 22.7156 3.15972C22.7156 2.73148 22.7964 2.32639 22.9582 1.94444C23.1315 1.55093 23.3568 1.21528 23.6341 0.9375C23.9229 0.648148 24.258 0.422454 24.6392 0.260417C25.032 0.0868056 25.448 0 25.887 0C26.326 0 26.7362 0.0868056 27.1174 0.260417C27.5103 0.422454 27.8511 0.648148 28.1399 0.9375C28.4288 1.21528 28.654 1.55093 28.8158 1.94444C28.9891 2.32639 29.0758 2.73148 29.0758 3.15972ZM28.2612 23.7073C28.2612 25.0257 27.1944 26.0944 25.8783 26.0944C24.5623 26.0944 23.4954 25.0257 23.4954 23.7073V9.88785C23.4954 8.56946 24.5623 7.50069 25.8783 7.50069C27.1944 7.50069 28.2612 8.56946 28.2612 9.88785V23.7073Z" fill="#282828"/>
<path d="M134.201 23.8903C133.819 24.2375 133.409 24.5674 132.97 24.8799C132.543 25.1808 132.092 25.447 131.618 25.6785C131.145 25.8984 130.654 26.072 130.145 26.1993C129.649 26.3382 129.14 26.4076 128.62 26.4076C127.477 26.4076 126.402 26.2051 125.397 25.8C124.392 25.3949 123.508 24.822 122.745 24.0812C121.994 23.3289 121.399 22.4204 120.96 21.3556C120.533 20.2792 120.319 19.0755 120.319 17.7444V9.82778C120.319 8.52377 121.374 7.46667 122.676 7.46667C123.978 7.46667 125.033 8.52377 125.033 9.82778V17.7444C125.033 18.3694 125.125 18.9308 125.31 19.4285C125.507 19.9146 125.767 20.3255 126.09 20.6611C126.414 20.9968 126.789 21.2514 127.217 21.425C127.656 21.5986 128.124 21.6854 128.62 21.6854C129.106 21.6854 129.562 21.5755 129.989 21.3556C130.428 21.1241 130.81 20.8231 131.133 20.4528C131.457 20.0824 131.711 19.6657 131.896 19.2028C132.081 18.7282 132.173 18.2421 132.173 17.7444V9.83646C132.173 8.52766 133.232 7.46667 134.539 7.46667C135.845 7.46667 136.904 8.52766 136.904 9.83646V25.3027C136.904 25.7212 136.566 26.0604 136.148 26.0604C135.905 26.0604 135.676 25.9432 135.534 25.7454L134.201 23.8903Z" fill="#282828"/>
<path d="M49.0251 18.2294C50.2215 14.2529 51.3881 12.3334 52.7924 9.50051C53.0328 9.01552 52.6566 8.46834 52.1257 8.56981C50.1696 8.94361 48.4897 9.80174 46.8586 9.79092L49.0251 18.2294Z" fill="#E8C300"/>
<path d="M40.8145 15.0425C40.5128 15.8729 39.5962 16.3009 38.7674 15.9986C37.9385 15.6963 37.5112 14.7781 37.813 13.9478C38.1147 13.1175 39.0313 12.6894 39.8602 12.9917C40.689 13.294 41.1163 14.2122 40.8145 15.0425Z" fill="#0C1E5B"/>
<path fill-rule="evenodd" clip-rule="evenodd" d="M48.9753 19.833C48.7362 20.4909 48.4457 21.1051 48.104 21.6756L46.3196 26.2401C45.9247 27.3268 45.4762 28.2804 44.7121 29.08C43.9481 29.8795 43.0722 30.5021 42.0844 30.9478C41.1063 31.397 40.0561 31.6511 38.9336 31.71C37.8208 31.7725 36.7151 31.6034 35.6165 31.2027L35.5557 31.1795C34.4872 30.7722 33.9477 29.5685 34.3388 28.4923C34.733 27.4077 35.9417 26.8434 37.0185 27.2541C37.6407 27.481 38.2003 27.5925 38.6972 27.5886C39.1906 27.5943 39.6387 27.5127 40.0414 27.3438C40.4774 27.1698 41.3292 26.7072 41.5127 26.2383C39.902 26.5166 38.2556 26.3621 36.7179 25.8013C35.4911 25.3538 34.4199 24.6983 33.5042 23.8347C32.6034 22.9642 31.894 21.9726 31.3763 20.8599C30.8733 19.7404 30.5919 18.5354 30.5322 17.2449C30.4765 15.9436 30.6858 14.6403 31.1601 13.3353C31.6423 12.0084 32.3223 10.8646 33.2002 9.90379C34.0781 8.94298 35.0669 8.20124 36.1667 7.67857C37.2814 7.14899 38.461 6.84637 39.7058 6.77071C40.9614 6.69902 42.2025 6.88689 43.4293 7.33432C44.6669 7.78571 45.7421 8.43036 46.6548 9.26827C47.5823 10.0993 48.2996 11.0691 48.8065 12.1778C49.3174 13.2756 49.5987 14.4806 49.6505 15.7928C49.7063 17.0942 49.4812 18.4409 48.9753 19.833ZM44.497 18.1996C44.7579 17.4818 44.8737 16.7912 44.8443 16.1276C44.8298 15.4572 44.6968 14.8421 44.4453 14.2823C44.1977 13.7117 43.8421 13.2186 43.3783 12.8031C42.9294 12.3807 42.4009 12.0586 41.793 11.8369C41.185 11.6151 40.5681 11.5195 39.9423 11.5499C39.3313 11.5734 38.7479 11.7239 38.192 12.0016C37.651 12.2723 37.1598 12.6597 36.7184 13.1639C36.2809 13.6571 35.9317 14.2627 35.6709 14.9805C35.4258 15.6548 35.3125 16.3217 35.331 16.9813C35.3495 17.6408 35.4771 18.254 35.7138 18.8207C35.9613 19.3913 36.3056 19.8987 36.7467 20.3429C37.2025 20.7801 37.7344 21.1096 38.3424 21.3314C38.9503 21.5531 39.5618 21.6468 40.1768 21.6124C40.8026 21.582 41.3914 21.4334 41.9433 21.1666C42.4952 20.8999 42.9918 20.5144 43.4333 20.0103C43.8855 19.5101 44.2401 18.9065 44.497 18.1996Z" fill="#4D74F0"/>
</svg>
